<svg width="20" height="20" viewBox="0 0 20 20" fill="none" xmlns="http://www.w3.org/2000/svg">
<g id="technology_16638049 1" clip-path="url(#clip0_852_24311)">
<path id="Vector" d="M14.5832 20.0003C11.5965 20.0003 9.1665 17.5703 9.1665 14.5837C9.1665 11.597 11.5965 9.16699 14.5832 9.16699C17.5698 9.16699 19.9998 11.597 19.9998 14.5837C19.9998 17.5703 17.5698 20.0003 14.5832 20.0003ZM14.5832 10.417C12.2857 10.417 10.4165 12.2862 10.4165 14.5837C10.4165 16.8812 12.2857 18.7503 14.5832 18.7503C16.8807 18.7503 18.7498 16.8812 18.7498 14.5837C18.7498 12.2862 16.8807 10.417 14.5832 10.417Z" fill="#0168B4"/>
<path id="Vector_2" d="M14.5835 17.4997C14.2385 17.4997 13.9585 17.2197 13.9585 16.8747V13.958C13.9585 13.613 14.2385 13.333 14.5835 13.333C14.9285 13.333 15.2085 13.613 15.2085 13.958V16.8747C15.2085 17.2197 14.9285 17.4997 14.5835 17.4997Z" fill="#0168B4"/>
<path id="Vector_3" d="M14.5835 12.917C14.9287 12.917 15.2085 12.6372 15.2085 12.292C15.2085 11.9468 14.9287 11.667 14.5835 11.667C14.2383 11.667 13.9585 11.9468 13.9585 12.292C13.9585 12.6372 14.2383 12.917 14.5835 12.917Z" fill="#0168B4"/>
<path id="Vector_4" d="M8.33333 6.66656C8.26333 6.66656 8.19333 6.65489 8.12583 6.63156L0.4175 3.92323C0.1675 3.83573 0 3.59823 0 3.33323C0 3.06823 0.1675 2.83073 0.4175 2.74323L8.12583 0.0348926C8.26083 -0.0126074 8.40583 -0.0126074 8.54083 0.0348926L16.2492 2.74323C16.4992 2.83073 16.6667 3.06823 16.6667 3.33323C16.6667 3.59823 16.4992 3.83573 16.2492 3.92323L8.54083 6.63156C8.47333 6.65489 8.40333 6.66656 8.33333 6.66656ZM2.51083 3.33323L8.33333 5.37906L14.1558 3.33323L8.33333 1.28739L2.51083 3.33323Z" fill="#0168B4"/>
<path id="Vector_5" d="M16.0415 7.49967C15.6965 7.49967 15.4165 7.21967 15.4165 6.87467V3.33301C15.4165 2.98801 15.6965 2.70801 16.0415 2.70801C16.3865 2.70801 16.6665 2.98801 16.6665 3.33301V6.87467C16.6665 7.21967 16.3865 7.49967 16.0415 7.49967Z" fill="#0168B4"/>
<path id="Vector_6" d="M7.15833 16.2497C7.09 16.2497 7.02 16.238 6.95167 16.2147L0.418333 13.923C0.1675 13.8355 0 13.598 0 13.333V3.33301C0 2.98801 0.28 2.70801 0.625 2.70801C0.97 2.70801 1.25 2.98801 1.25 3.33301V12.8905L7.365 15.0347C7.69083 15.1497 7.8625 15.5055 7.74833 15.8313C7.6575 16.0888 7.41583 16.2497 7.15833 16.2497Z" fill="#0168B4"/>
<path id="Vector_7" d="M8.3335 10.8337C7.9885 10.8337 7.7085 10.5537 7.7085 10.2087V6.04199C7.7085 5.69699 7.9885 5.41699 8.3335 5.41699C8.6785 5.41699 8.9585 5.69699 8.9585 6.04199V10.2087C8.9585 10.5537 8.6785 10.8337 8.3335 10.8337Z" fill="#0168B4"/>
</g>
<defs>
<clipPath id="clip0_852_24311">
<rect width="20" height="20" fill="white"/>
</clipPath>
</defs>
</svg>
