<svg xmlns="http://www.w3.org/2000/svg" width="16" height="16" viewBox="0 0 16 16" fill="none">
  <path d="M14.9925 7.11465L14.9918 6.50463C14.991 5.92782 14.516 5.45731 13.9329 5.45581C13.9319 5.45581 13.931 5.45581 13.9301 5.45581C13.6458 5.45581 13.3792 5.56571 13.1793 5.76537C12.9818 5.96263 12.8732 6.22439 12.8736 6.50231L12.8816 13.6205C12.8817 13.7012 12.9055 13.7801 12.9502 13.8473L13.5952 14.817C13.671 14.9309 13.7987 14.9996 13.9355 15C13.9359 15 13.9363 15 13.9367 15C14.0731 15 14.2007 14.9321 14.2769 14.8189L14.9299 13.8492C14.9755 13.7814 14.9999 13.7014 14.9998 13.6196L14.9925 7.11465ZM13.6939 6.50135C13.6938 6.44303 13.717 6.38777 13.759 6.34577C13.804 6.30084 13.8648 6.27612 13.9302 6.27612C13.9304 6.27612 13.9306 6.27612 13.9308 6.27612C14.0634 6.27648 14.1714 6.37948 14.1716 6.50567L14.1719 6.78031H13.6942L13.6939 6.50135ZM13.6951 7.60063H14.1728L14.1778 12.0575H13.7001L13.6951 7.60063ZM13.9388 13.8524L13.7018 13.496L13.7011 12.8779H14.1787L14.1794 13.4951L13.9388 13.8524Z" fill="#0168B4"/>
  <path d="M10.6995 1H2.23047C1.55199 1 1 1.55199 1 2.23047V13.7695C1 14.448 1.55199 15 2.23047 15H10.6995C11.3779 15 11.9299 14.448 11.9299 13.7695V2.23047C11.9299 1.55199 11.3779 1 10.6995 1ZM11.1096 13.7695C11.1096 13.9957 10.9256 14.1797 10.6995 14.1797H2.23047C2.00431 14.1797 1.82031 13.9957 1.82031 13.7695V2.23047C1.82031 2.00431 2.00431 1.82031 2.23047 1.82031H10.6995C10.9256 1.82031 11.1096 2.00431 11.1096 2.23047V13.7695Z" fill="#0168B4"/>
  <path d="M9.60024 3.31548H3.33105C3.10454 3.31548 2.9209 3.49912 2.9209 3.72563C2.9209 3.95215 3.10454 4.13579 3.33105 4.13579H9.60024C9.82675 4.13579 10.0104 3.95215 10.0104 3.72563C10.0104 3.49912 9.82675 3.31548 9.60024 3.31548Z" fill="#0168B4"/>
  <path d="M9.60024 5.08469H3.33105C3.10454 5.08469 2.9209 5.26833 2.9209 5.49484C2.9209 5.72136 3.10454 5.905 3.33105 5.905H9.60024C9.82675 5.905 10.0104 5.72136 10.0104 5.49484C10.0104 5.26833 9.82675 5.08469 9.60024 5.08469Z" fill="#0168B4"/>
  <path d="M9.60024 6.85391H3.33105C3.10454 6.85391 2.9209 7.03755 2.9209 7.26407C2.9209 7.49058 3.10454 7.67422 3.33105 7.67422H9.60024C9.82675 7.67422 10.0104 7.49058 10.0104 7.26407C10.0104 7.03755 9.82675 6.85391 9.60024 6.85391Z" fill="#0168B4"/>
  <path d="M7.19853 8.62314H3.33105C3.10454 8.62314 2.9209 8.80678 2.9209 9.03329C2.9209 9.25981 3.10454 9.44345 3.33105 9.44345H7.19853C7.42504 9.44345 7.60868 9.25981 7.60868 9.03329C7.60868 8.80678 7.42504 8.62314 7.19853 8.62314Z" fill="#0168B4"/>
  <path d="M8.60315 9.90274C7.60237 9.90274 6.78821 10.705 6.78821 11.6912C6.78821 12.6773 7.6024 13.4795 8.60315 13.4795C9.6039 13.4795 10.4181 12.6773 10.4181 11.6912C10.4181 10.705 9.60393 9.90274 8.60315 9.90274ZM8.60315 12.6593C8.05469 12.6593 7.60852 12.225 7.60852 11.6912C7.60852 11.1574 8.05472 10.7231 8.60315 10.7231C9.15158 10.7231 9.59778 11.1574 9.59778 11.6912C9.59778 12.225 9.15161 12.6593 8.60315 12.6593Z" fill="#0168B4"/>
</svg>