<svg width="16" height="16" viewBox="0 0 16 16" fill="none" xmlns="http://www.w3.org/2000/svg">
<g id="shopping_15494922 1" clip-path="url(#clip0_992_8163)">
<g id="XMLID_533_">
<g id="XMLID_484_">
<g id="XMLID_503_">
<g id="XMLID_81_">
<path id="XMLID_85_" d="M7.70911 8.6872C7.29896 8.47133 6.89036 8.25392 6.48021 8.03805C5.83106 7.69575 5.18192 7.3519 4.53277 7.0096C4.38475 6.93096 4.23519 6.85232 4.08716 6.77369C4.13805 6.86312 4.18893 6.95101 4.23981 7.04044C4.23981 6.61024 4.23981 6.18005 4.23981 5.7514C4.23981 5.06525 4.23981 4.3791 4.23981 3.69295C4.23981 3.53413 4.23981 3.37531 4.23981 3.21804C4.08562 3.30747 3.92989 3.39536 3.7757 3.48479C4.18584 3.70066 4.59445 3.91807 5.0046 4.13393C5.65374 4.47778 6.30289 4.82008 6.95203 5.16393C7.10006 5.24257 7.24962 5.32121 7.39764 5.39984C7.34676 5.31041 7.29588 5.22252 7.245 5.13309V6.42213V8.47904V8.95395C7.245 9.11585 7.38685 9.27004 7.55338 9.26233C7.7199 9.25462 7.86176 9.12664 7.86176 8.95395C7.86176 8.52375 7.86176 8.09356 7.86176 7.66491C7.86176 6.97876 7.86176 6.29261 7.86176 5.608C7.86176 5.44918 7.86176 5.29191 7.86176 5.13309C7.86176 5.02824 7.80317 4.91723 7.70911 4.86634C7.29896 4.65047 6.89036 4.43307 6.48021 4.2172C5.83106 3.87335 5.18192 3.53105 4.53277 3.1872C4.38475 3.10856 4.23519 3.02993 4.08716 2.95129C3.88363 2.84336 3.62305 2.97596 3.62305 3.21804V4.50708V6.56553V7.04044C3.62305 7.14529 3.68164 7.2563 3.7757 7.30719C4.18584 7.52305 4.59445 7.74046 5.0046 7.95633C5.65374 8.29864 6.30289 8.64248 6.95203 8.98479C7.10006 9.06342 7.24962 9.14206 7.39764 9.2207C7.5395 9.29625 7.73995 9.26233 7.82013 9.10968C7.89568 8.96628 7.86176 8.76738 7.70911 8.6872Z" fill="#0168B4" stroke="#0168B4" stroke-width="0.3"/>
</g>
</g>
<g id="XMLID_502_">
<g id="XMLID_75_">
<path id="XMLID_79_" d="M11.0198 6.77369C10.6096 6.98955 10.201 7.20696 9.79089 7.42283C9.14174 7.76513 8.49106 8.10898 7.84191 8.45129C7.69389 8.52992 7.54432 8.60856 7.3963 8.6872C7.55049 8.77663 7.70623 8.86452 7.86042 8.95395C7.86042 8.52375 7.86042 8.09356 7.86042 7.66491C7.86042 6.97876 7.86042 6.29261 7.86042 5.608C7.86042 5.44918 7.86042 5.29191 7.86042 5.13309C7.80953 5.22252 7.75865 5.31041 7.70777 5.39984C8.11792 5.18398 8.52652 4.96657 8.93667 4.7507C9.58581 4.40685 10.2365 4.06455 10.8856 3.7207C11.0337 3.64207 11.1832 3.56343 11.3313 3.48479C11.1771 3.39536 11.0213 3.30747 10.8671 3.21804V4.50708V6.56553V7.04044C10.8671 7.20234 11.009 7.35653 11.1755 7.34882C11.3421 7.34111 11.4839 7.21313 11.4839 7.04044C11.4839 6.61024 11.4839 6.18005 11.4839 5.7514C11.4839 5.06525 11.4839 4.3791 11.4839 3.69295C11.4839 3.53413 11.4839 3.37531 11.4839 3.21804C11.4839 2.97596 11.2233 2.84336 11.0198 2.95129C10.6096 3.16716 10.201 3.38457 9.79089 3.60043C9.14174 3.94428 8.49106 4.28658 7.84191 4.63043C7.69389 4.70907 7.54432 4.7877 7.3963 4.86634C7.3007 4.91568 7.24365 5.02824 7.24365 5.13309V6.42213V8.47904V8.95395C7.24365 9.19603 7.50423 9.32863 7.70777 9.2207C8.11792 9.00483 8.52652 8.78742 8.93667 8.57155C9.58581 8.22925 10.2365 7.8854 10.8856 7.5431C11.0337 7.46446 11.1832 7.38582 11.3313 7.30719C11.4747 7.23163 11.5302 7.02039 11.4423 6.8847C11.3482 6.73976 11.1724 6.69351 11.0198 6.77369Z" fill="#0168B4" stroke="#0168B4" stroke-width="0.3"/>
</g>
</g>
<g id="XMLID_501_">
<g id="XMLID_69_">
<path id="XMLID_73_" d="M11.0212 2.95123C10.611 3.1671 10.2024 3.38451 9.79228 3.60038C9.14314 3.94422 8.49245 4.28653 7.84331 4.63037C7.69528 4.70901 7.54572 4.78765 7.3977 4.86629H7.70916C7.29901 4.65042 6.89041 4.43301 6.48026 4.21714C5.83111 3.8733 5.18197 3.53099 4.53283 3.18714C4.3848 3.10851 4.23524 3.02987 4.08721 2.95123V3.48319C4.49736 3.26732 4.90597 3.05146 5.31612 2.83405C5.96526 2.49174 6.61441 2.1479 7.26355 1.80559C7.41157 1.72696 7.56114 1.64832 7.70916 1.56968C7.60585 1.56968 7.501 1.56968 7.3977 1.56968C7.80784 1.78555 8.21645 2.00142 8.6266 2.21882C9.27574 2.56113 9.92643 2.90498 10.5756 3.24728C10.7236 3.32592 10.8732 3.40455 11.0212 3.48319C11.163 3.55875 11.3635 3.52482 11.4437 3.37217C11.5192 3.23032 11.4853 3.03141 11.3327 2.94969C10.9194 2.73074 10.5046 2.51333 10.0914 2.29438C9.44227 1.95053 8.79158 1.60823 8.14244 1.26438C7.99904 1.18883 7.85873 1.11019 7.71379 1.03772C7.57964 0.971419 7.46554 1.00072 7.34835 1.06239C7.27434 1.10094 7.20033 1.13949 7.12786 1.17958C6.50801 1.50646 5.88971 1.83335 5.26986 2.16023C4.78107 2.41927 4.28458 2.66752 3.80042 2.93581C3.79271 2.94044 3.785 2.94352 3.77729 2.94815C3.57684 3.05454 3.57684 3.37526 3.77729 3.48011C4.19052 3.69906 4.6053 3.91801 5.01853 4.13542C5.66767 4.47927 6.31836 4.82157 6.9675 5.16542C7.1109 5.24097 7.25121 5.31961 7.39615 5.39208C7.5303 5.45838 7.6444 5.42908 7.76159 5.36741C7.8356 5.32886 7.90961 5.28877 7.98208 5.25022C8.60193 4.92334 9.22023 4.59645 9.84008 4.26802C10.3289 4.00898 10.8254 3.75919 11.3095 3.49244C11.3172 3.48782 11.3249 3.48473 11.3327 3.48011C11.476 3.40455 11.5316 3.19331 11.4437 3.05762C11.3496 2.91577 11.1738 2.86951 11.0212 2.95123Z" fill="#0168B4" stroke="#0168B4" stroke-width="0.3"/>
</g>
</g>
<g id="XMLID_2_">
<g id="XMLID_63_">
<path id="XMLID_67_" d="M9.20571 1.99517C8.79711 2.21104 8.38696 2.42845 7.97835 2.64431C7.32921 2.98816 6.68006 3.33046 6.03092 3.67431C5.8829 3.75295 5.73333 3.83159 5.58531 3.91022C5.44191 3.98578 5.3864 4.19702 5.47429 4.33271C5.56835 4.47765 5.74412 4.5239 5.89677 4.44372C6.30538 4.22786 6.71553 4.01045 7.12413 3.79458C7.77328 3.45073 8.42242 3.10843 9.07157 2.76458C9.21959 2.68595 9.36916 2.60731 9.51718 2.52867C9.66058 2.45312 9.71609 2.24188 9.6282 2.10619C9.53414 1.95971 9.35836 1.91345 9.20571 1.99517Z" fill="#0168B4" stroke="#0168B4" stroke-width="0.3"/>
</g>
</g>
</g>
<g id="XMLID_504_">
<g id="XMLID_531_">
<g id="XMLID_57_">
<path id="XMLID_61_" d="M4.08452 14.423C3.67592 14.2071 3.26577 13.9912 2.85716 13.7754C2.20802 13.4331 1.55887 13.0892 0.909727 12.7469C0.761704 12.6683 0.612139 12.5896 0.464115 12.511C0.514998 12.6004 0.565881 12.6883 0.616764 12.7777C0.616764 12.3475 0.616764 11.9189 0.616764 11.4887C0.616764 10.8026 0.616764 10.1179 0.616764 9.43179C0.616764 9.27298 0.616764 9.1157 0.616764 8.95689C0.462573 9.04632 0.30684 9.13421 0.152649 9.22364C0.561256 9.4395 0.971404 9.65691 1.38001 9.87278C2.02915 10.2166 2.6783 10.5589 3.32744 10.9028C3.47547 10.9814 3.62503 11.0601 3.77306 11.1387C3.72217 11.0493 3.67129 10.9614 3.62041 10.8719V12.161V14.2163V14.6913C3.62041 14.8532 3.76226 15.0073 3.92879 14.9996C4.09531 14.9919 4.23717 14.8639 4.23717 14.6913C4.23717 14.2611 4.23717 13.8324 4.23717 13.4022C4.23717 12.7176 4.23717 12.0315 4.23717 11.3468C4.23717 11.188 4.23717 11.0308 4.23717 10.8719C4.23717 10.7671 4.17858 10.6561 4.08452 10.6052C3.67437 10.3862 3.26577 10.1704 2.85716 9.9545C2.20802 9.61066 1.55887 9.26835 0.909727 8.92451C0.761704 8.84587 0.612139 8.76723 0.464115 8.68859C0.260583 8.58066 0 8.71326 0 8.95534V10.2444V12.3013V12.7762C0 12.881 0.0585926 12.9921 0.152649 13.0429C0.561256 13.2588 0.971404 13.4747 1.38001 13.6906C2.02915 14.0329 2.6783 14.3767 3.32744 14.719C3.47547 14.7976 3.62503 14.8763 3.77306 14.9549C3.91491 15.0305 4.11536 14.9965 4.19554 14.8439C4.26955 14.702 4.23717 14.5031 4.08452 14.423Z" fill="#0168B4" stroke="#0168B4" stroke-width="0.3"/>
</g>
</g>
<g id="XMLID_526_">
<g id="XMLID_51_">
<path id="XMLID_55_" d="M7.39772 12.5096C6.98757 12.7254 6.57897 12.9413 6.16882 13.1572C5.51967 13.4995 4.86899 13.8433 4.21984 14.1856C4.07182 14.2643 3.92225 14.3429 3.77423 14.4215C3.92842 14.511 4.08416 14.5989 4.23835 14.6883C4.23835 14.2581 4.23835 13.8294 4.23835 13.3993C4.23835 12.7146 4.23835 12.0285 4.23835 11.3439C4.23835 11.1851 4.23835 11.0278 4.23835 10.869C4.18746 10.9584 4.13658 11.0463 4.0857 11.1357C4.49585 10.9199 4.90445 10.7024 5.3146 10.4866C5.96374 10.1427 6.61443 9.80043 7.26358 9.45659C7.4116 9.37795 7.56116 9.29931 7.70919 9.22067C7.555 9.13124 7.39926 9.04335 7.24507 8.95392V10.243V12.3014V12.7763C7.24507 12.9382 7.38693 13.0924 7.55345 13.0847C7.71998 13.077 7.86184 12.949 7.86184 12.7763C7.86184 12.3461 7.86184 11.9159 7.86184 11.4873C7.86184 10.8011 7.86184 10.115 7.86184 9.42883C7.86184 9.27001 7.86184 9.1112 7.86184 8.95392C7.86184 8.71338 7.60125 8.57924 7.39772 8.68717C6.98757 8.90304 6.57897 9.12045 6.16882 9.33632C5.51967 9.68016 4.86899 10.0225 4.21984 10.3663C4.07182 10.445 3.92225 10.5236 3.77423 10.6022C3.67863 10.6531 3.62158 10.7641 3.62158 10.869V12.158V14.2134V14.6883C3.62158 14.9304 3.88217 15.063 4.0857 14.955C4.49585 14.7392 4.90445 14.5233 5.3146 14.3074C5.96374 13.9651 6.61443 13.6213 7.26358 13.279C7.4116 13.2003 7.56116 13.1217 7.70919 13.0431C7.85258 12.9675 7.90809 12.7563 7.8202 12.6206C7.72615 12.4756 7.55037 12.4294 7.39772 12.5096Z" fill="#0168B4" stroke="#0168B4" stroke-width="0.3"/>
</g>
</g>
<g id="XMLID_525_">
<g id="XMLID_45_">
<path id="XMLID_49_" d="M7.39619 8.68707C6.98604 8.90294 6.57743 9.12035 6.16728 9.33622C5.51814 9.68006 4.86745 10.0224 4.21831 10.3662C4.07028 10.4449 3.92072 10.5235 3.7727 10.6021H4.08416C3.67401 10.3863 3.26541 10.1704 2.8568 9.95452C2.20766 9.61068 1.55851 9.26837 0.909368 8.92453C0.761344 8.84589 0.611779 8.76725 0.463755 8.68861V9.22057C0.873904 9.00471 1.28251 8.7873 1.69266 8.57143C2.3418 8.22758 2.99095 7.88528 3.64009 7.54143C3.78811 7.4628 3.93768 7.38416 4.0857 7.30552C3.9824 7.30552 3.87755 7.30552 3.77424 7.30552C4.18439 7.52139 4.59299 7.7388 5.00314 7.95466C5.65229 8.29697 6.30143 8.64082 6.95057 8.98312C7.0986 9.06176 7.24816 9.14039 7.39619 9.21903C7.53804 9.29458 7.73849 9.26066 7.81867 9.10801C7.89422 8.96616 7.8603 8.76725 7.70765 8.68553C7.29442 8.46658 6.87965 8.24917 6.46641 8.03022C5.81727 7.68637 5.16658 7.34407 4.51744 7.00022C4.37404 6.92467 4.23373 6.84603 4.08879 6.77356C3.95464 6.70726 3.84054 6.73656 3.72335 6.79823C3.64934 6.83678 3.57533 6.87687 3.50286 6.91542C2.88301 7.2423 2.26471 7.57073 1.64486 7.89761C1.15607 8.15666 0.659578 8.40644 0.175418 8.67474C0.167709 8.67936 0.159999 8.68245 0.152289 8.68707C-0.048159 8.79346 -0.048159 9.11418 0.152289 9.21903C0.565521 9.43798 0.980295 9.65693 1.39353 9.87434C2.04267 10.2182 2.69182 10.5605 3.3425 10.9043C3.4859 10.9799 3.62621 11.0585 3.77115 11.131C3.9053 11.1973 4.0194 11.168 4.13659 11.1063C4.2106 11.0678 4.28461 11.0277 4.35708 10.9891C4.97693 10.6623 5.59523 10.3338 6.21508 10.0069C6.70387 9.74791 7.20036 9.49812 7.68452 9.22982C7.69223 9.2252 7.69994 9.22212 7.70765 9.21749C7.85105 9.14194 7.90656 8.93069 7.81867 8.79501C7.72461 8.65315 7.54883 8.60689 7.39619 8.68707Z" fill="#0168B4" stroke="#0168B4" stroke-width="0.3"/>
</g>
</g>
<g id="XMLID_1_">
<g id="XMLID_39_">
<path id="XMLID_43_" d="M5.58413 7.73267C5.17552 7.94854 4.76538 8.16595 4.35677 8.38182C3.70763 8.72566 3.05848 9.06797 2.40934 9.41181C2.26131 9.49045 2.11175 9.56909 1.96372 9.64772C1.82033 9.72328 1.76482 9.93452 1.85271 10.0702C1.94676 10.2151 2.12254 10.2614 2.27519 10.1812C2.6838 9.96536 3.09394 9.74795 3.50255 9.53208C4.1517 9.18824 4.80084 8.84593 5.44998 8.50209C5.59801 8.42345 5.74757 8.34481 5.8956 8.26617C6.03899 8.19062 6.0945 7.97938 6.00661 7.84369C5.91256 7.69875 5.73678 7.65249 5.58413 7.73267Z" fill="#0168B4" stroke="#0168B4" stroke-width="0.3"/>
</g>
</g>
</g>
<g id="XMLID_532_">
<g id="XMLID_540_">
<g id="XMLID_33_">
<path id="XMLID_37_" d="M11.3317 14.4232C10.9216 14.2073 10.513 13.9915 10.1028 13.7756C9.4537 13.4333 8.80301 13.0895 8.15387 12.7471C8.00584 12.6685 7.85628 12.5899 7.70826 12.5112C7.75914 12.6007 7.81002 12.6886 7.8609 12.778C7.8609 12.3478 7.8609 11.9176 7.8609 11.4889C7.8609 10.8028 7.8609 10.1166 7.8609 9.4305C7.8609 9.27168 7.8609 9.11286 7.8609 8.95559C7.70671 9.04502 7.55098 9.13291 7.39679 9.22234C7.80694 9.43821 8.21554 9.65562 8.62569 9.87148C9.27484 10.2153 9.92552 10.5576 10.5747 10.9015C10.7227 10.9801 10.8723 11.0588 11.0203 11.1374C10.9694 11.048 10.9185 10.9601 10.8676 10.8706V12.1597V14.215V14.69C10.8676 14.8519 11.0095 15.006 11.176 14.9983C11.3425 14.9906 11.4844 14.8626 11.4844 14.69C11.4844 14.2598 11.4844 13.8311 11.4844 13.4009C11.4844 12.7163 11.4844 12.0302 11.4844 11.3456C11.4844 11.1867 11.4844 11.0295 11.4844 10.8706C11.4844 10.7658 11.4258 10.6548 11.3317 10.6039C10.9216 10.388 10.513 10.1706 10.1028 9.95475C9.4537 9.6109 8.80301 9.2686 8.15387 8.92475C8.00584 8.84611 7.85628 8.76748 7.70826 8.68884C7.50472 8.5809 7.24414 8.71351 7.24414 8.95559V10.2446V12.3031V12.778C7.24414 12.8828 7.30273 12.9939 7.39679 13.0447C7.80694 13.2606 8.21554 13.4765 8.62569 13.6923C9.27484 14.0346 9.92552 14.3785 10.5747 14.7208C10.7227 14.7994 10.8723 14.8781 11.0203 14.9567C11.1621 15.0323 11.3626 14.9983 11.4428 14.8457C11.5183 14.7023 11.4844 14.5034 11.3317 14.4232Z" fill="#0168B4" stroke="#0168B4" stroke-width="0.3"/>
</g>
</g>
<g id="XMLID_539_">
<g id="XMLID_27_">
<path id="XMLID_31_" d="M14.6432 12.5095C14.2346 12.7254 13.8244 12.9413 13.4158 13.1571C12.7667 13.4994 12.1175 13.8433 11.4684 14.1856C11.3204 14.2642 11.1708 14.3429 11.0228 14.4215C11.177 14.5109 11.3327 14.5988 11.4869 14.6882C11.4869 14.2581 11.4869 13.8294 11.4869 13.3992C11.4869 12.7146 11.4869 12.0284 11.4869 11.3438C11.4869 11.185 11.4869 11.0277 11.4869 10.8689C11.436 10.9584 11.3851 11.0463 11.3342 11.1357C11.7428 10.9198 12.153 10.7024 12.5616 10.4865C13.2107 10.1427 13.8599 9.80039 14.509 9.45654C14.6571 9.37791 14.8066 9.29927 14.9546 9.22063C14.8004 9.1312 14.6447 9.04331 14.4905 8.95388V10.2429V12.2998V12.7747C14.4905 12.9366 14.6324 13.0908 14.7989 13.0831C14.9654 13.0754 15.1073 12.9474 15.1073 12.7747C15.1073 12.3445 15.1073 11.9159 15.1073 11.4857C15.1073 10.7995 15.1073 10.1149 15.1073 9.42879C15.1073 9.26997 15.1073 9.1127 15.1073 8.95388C15.1073 8.7118 14.8467 8.5792 14.6432 8.68713C14.2346 8.903 13.8244 9.12041 13.4158 9.33627C12.7667 9.68012 12.1175 10.0224 11.4684 10.3663C11.3204 10.4449 11.1708 10.5235 11.0228 10.6022C10.9272 10.6531 10.8701 10.7641 10.8701 10.8689V12.158V14.2133V14.6882C10.8701 14.9303 11.1307 15.0629 11.3342 14.955C11.7428 14.7391 12.153 14.5233 12.5616 14.3074C13.2107 13.9651 13.8599 13.6212 14.509 13.2789C14.6571 13.2003 14.8066 13.1217 14.9546 13.043C15.098 12.9675 15.1535 12.7562 15.0657 12.6205C14.9716 12.4756 14.7958 12.4293 14.6432 12.5095Z" fill="#0168B4" stroke="#0168B4" stroke-width="0.3"/>
</g>
</g>
<g id="XMLID_538_">
<g id="XMLID_21_">
<path id="XMLID_25_" d="M14.6423 8.68878C14.2337 8.90465 13.8235 9.12206 13.4149 9.33793C12.7658 9.68177 12.1166 10.0241 11.4675 10.3679C11.3195 10.4466 11.1699 10.5252 11.0219 10.6038H11.3333C10.9232 10.388 10.5146 10.1706 10.1044 9.95469C9.45529 9.61084 8.80461 9.26854 8.15546 8.92469C8.00744 8.84606 7.85787 8.76742 7.70985 8.68878V9.22074C8.12 9.00487 8.5286 8.78746 8.93875 8.5716C9.5879 8.22929 10.2386 7.88545 10.8877 7.54314C11.0358 7.4645 11.1853 7.38587 11.3333 7.30723C11.23 7.30723 11.1252 7.30723 11.0219 7.30723C11.4305 7.5231 11.8406 7.74051 12.2492 7.95637C12.8984 8.30022 13.5475 8.64252 14.1967 8.98637C14.3447 9.06501 14.4943 9.14365 14.6423 9.22228C14.7841 9.29784 14.9846 9.26391 15.0648 9.11126C15.1403 8.96941 15.1064 8.7705 14.9537 8.68878C14.5405 8.46983 14.1257 8.25088 13.7125 8.03193C13.0634 7.68808 12.4142 7.34578 11.7635 7.00193C11.6201 6.92638 11.4798 6.84774 11.3349 6.77527C11.2007 6.70897 11.0866 6.73826 10.9694 6.79994C10.8954 6.83849 10.8214 6.87704 10.749 6.91713C10.1291 7.24401 9.5108 7.5709 8.89095 7.89778C8.40217 8.15682 7.90567 8.40507 7.42151 8.67336C7.4138 8.67799 7.40609 8.68107 7.39838 8.6857C7.19793 8.79209 7.19793 9.11281 7.39838 9.21766C7.81162 9.43661 8.22639 9.65556 8.63962 9.87451C9.28877 10.2184 9.93945 10.5622 10.5886 10.9045C10.732 10.9801 10.8723 11.0587 11.0172 11.1312C11.1514 11.1975 11.2655 11.1682 11.3827 11.1065C11.4567 11.068 11.5307 11.0279 11.6032 10.9893C12.2215 10.6624 12.8413 10.3355 13.4596 10.0071C13.9484 9.74807 14.4434 9.49828 14.9275 9.23153C14.9352 9.22691 14.943 9.22382 14.9507 9.2192C15.0941 9.14364 15.1496 8.9324 15.0617 8.79672C14.9707 8.65486 14.7949 8.6086 14.6423 8.68878Z" fill="#0168B4" stroke="#0168B4" stroke-width="0.3"/>
</g>
</g>
<g id="XMLID_3_">
<g id="XMLID_15_">
<path id="XMLID_19_" d="M12.8302 7.73292C12.4216 7.94878 12.0115 8.16619 11.6029 8.38206C10.9537 8.72591 10.3046 9.06821 9.65543 9.41206C9.50741 9.49069 9.35784 9.56933 9.20982 9.64797C9.06642 9.72352 9.01091 9.93476 9.0988 10.0705C9.19286 10.2154 9.36864 10.2617 9.52128 10.1815C9.92989 9.9656 10.34 9.74819 10.7486 9.53233C11.3978 9.18848 12.0469 8.84618 12.6961 8.50233C12.8441 8.42369 12.9937 8.34505 13.1417 8.26642C13.2851 8.19086 13.3406 7.97962 13.2527 7.84393C13.1587 7.69899 12.9844 7.65274 12.8302 7.73292Z" fill="#0168B4" stroke="#0168B4" stroke-width="0.3"/>
</g>
</g>
</g>
</g>
</g>
<defs>
<clipPath id="clip0_992_8163">
<rect width="16" height="16" fill="white"/>
</clipPath>
</defs>
</svg>
