<svg xmlns="http://www.w3.org/2000/svg" width="24" height="24" viewBox="0 0 24 24" fill="none">
  <path d="M21.9375 5.50777L16.7786 0.375H5.41786C4.63088 0.375 3.98438 0.977719 3.98438 1.76466V9.10528C3.98438 9.10388 4.03233 9.09375 4.0642 9.09375H4.6875V1.76466C4.6875 1.3718 5.025 1.07812 5.41786 1.07812H16.4608L16.6875 1.2907V4.17788C16.6875 4.96158 17.3248 5.57812 18.1085 5.57812H20.9957L21.1875 5.80289V22.1882C21.1875 22.581 20.9146 22.9219 20.5217 22.9219H5.41786C5.025 22.9219 4.6875 22.581 4.6875 22.1882V19.3594H4.0642C4.03233 19.3594 3.98438 19.3611 3.98438 19.3597V22.1881C3.98438 22.9751 4.63088 23.625 5.41786 23.625H20.5218C21.3087 23.625 21.9375 22.9751 21.9375 22.1882V5.50777ZM18.1085 4.875C17.7157 4.875 17.3906 4.57073 17.3906 4.17788V2.07337V2.05973L20.2267 4.875H18.1085Z" fill="#0168B4"/>
  <path d="M17.7034 10H2.34262C1.92308 10 1.58301 10.3401 1.58301 10.7596V17.8012C1.58301 18.2207 1.92308 18.5608 2.34262 18.5608H17.7034C18.1229 18.5608 18.463 18.2207 18.463 17.8012V10.7596C18.463 10.3401 18.1229 10 17.7034 10ZM5.08214 15.4809C4.92376 15.4809 4.64726 15.4821 4.39545 15.4836V16.3063C4.39545 16.6211 4.14023 16.876 3.82575 16.876C3.51317 16.876 3.25604 16.6231 3.25604 16.3063V12.2564C3.25604 11.9425 3.50918 11.6848 3.82575 11.6848H5.08214C6.11217 11.6848 6.9504 12.5363 6.9504 13.5831C6.9504 14.6294 6.11217 15.4809 5.08214 15.4809ZM10.3417 16.8072C10.0513 16.8124 9.2315 16.8163 9.19352 16.8163C8.88003 16.8163 8.62461 16.562 8.62381 16.2485C8.62381 16.2485 8.6229 16.3362 8.61583 12.3157C8.61504 12.0022 8.86859 11.7448 9.18554 11.7448H10.2991C11.5897 11.7448 12.4568 12.7638 12.4568 14.2804C12.4568 15.7233 11.5673 16.786 10.3417 16.8072ZM16.2123 13.6727C16.526 13.6727 16.782 13.9274 16.782 14.2424C16.782 14.5574 16.526 14.8121 16.2123 14.8121C15.859 14.8121 15.6391 14.8121 15.2814 14.8121V16.2914C15.2814 16.6063 15.0262 16.8612 14.7117 16.8612C14.3968 16.8612 14.142 16.6063 14.142 16.2914V12.2693C14.142 11.9549 14.3968 11.6996 14.7117 11.6996H16.3418C16.6595 11.6996 16.9115 11.958 16.9115 12.2693C16.9115 12.5808 16.6597 12.839 16.3418 12.839C16.0041 12.839 15.7482 12.839 15.2814 12.839V13.6727H16.2123Z" fill="#0168B4"/>
  <path d="M10.299 12.8843H9.75586C9.75962 14.4558 9.75518 13.8581 9.76118 15.6739C9.97197 15.6724 10.1911 15.6705 10.3214 15.6682C11.0092 15.6561 11.3172 14.9626 11.3172 14.2804C11.3172 13.953 11.2436 12.8843 10.299 12.8843Z" fill="#0168B4"/>
  <path d="M5.08263 12.8242H4.39746C4.40069 14.0503 4.39693 13.2026 4.40164 14.3442C4.65193 14.3431 4.92463 14.3415 5.08263 14.3415C5.47762 14.3415 5.81147 13.9944 5.81147 13.5831C5.81147 13.1717 5.47762 12.8242 5.08263 12.8242Z" fill="#0168B4"/>
</svg>