<svg width="16" height="16" viewBox="0 0 16 16" fill="none" xmlns="http://www.w3.org/2000/svg">
<g id="rocket-lunch_6955628 1">
<path id="Vector" d="M11.0039 6.24443C11.0039 6.5755 10.8724 6.89302 10.6383 7.12713C10.4042 7.36123 10.0866 7.49275 9.75557 7.49275C9.4245 7.49275 9.10698 7.36123 8.87288 7.12713C8.63877 6.89302 8.50725 6.5755 8.50725 6.24443C8.50725 5.91335 8.63877 5.59584 8.87288 5.36173C9.10698 5.12763 9.4245 4.99611 9.75557 4.99611C10.0866 4.99611 10.4042 5.12763 10.6383 5.36173C10.8724 5.59584 11.0039 5.91335 11.0039 6.24443ZM11.0009 9.67282C10.9735 10.4662 10.7754 11.2443 10.4202 11.9543C10.0929 12.5732 9.60144 13.0901 8.99975 13.4481C8.39806 13.8062 7.70939 13.9916 7.00926 13.984H6.50994V11.2377C6.5077 10.7749 6.32286 10.3317 5.9956 10.0044C5.66833 9.67714 5.2251 9.4923 4.76229 9.49007H2.01598V8.99074C2.00842 8.29062 2.19384 7.60194 2.55189 7.00025C2.90994 6.39856 3.42679 5.90712 4.04575 5.57982C4.75568 5.2246 5.53382 5.02653 6.32718 4.9991C7.05463 4.05949 7.98883 3.30015 9.05726 2.78005C10.1257 2.25995 11.2996 1.99307 12.4879 2.00014C12.6856 1.99889 12.8817 2.03668 13.0647 2.11135C13.2478 2.18601 13.4144 2.29608 13.5549 2.43525C13.6953 2.57442 13.8069 2.73994 13.8833 2.92233C13.9597 3.10472 13.9993 3.30039 13.9999 3.49812C14.0083 4.68863 13.7421 5.86505 13.222 6.93596C12.7019 8.00687 11.9418 8.94342 11.0009 9.67282ZM3.05658 8.49141H4.18606C4.55688 7.66551 4.99249 6.87026 5.48881 6.11311C5.14408 6.19331 4.81004 6.31398 4.49365 6.47262C4.11313 6.67356 3.78495 6.96081 3.5354 7.31138C3.28585 7.66194 3.12187 8.06608 3.05658 8.49141ZM9.8869 10.5112C9.12974 11.0075 8.33449 11.4431 7.50859 11.8139V12.9434C7.93393 12.8781 8.33806 12.7141 8.68862 12.4646C9.03919 12.215 9.32644 11.8869 9.52738 11.5064C9.68602 11.19 9.80669 10.8559 9.8869 10.5112ZM13.0012 3.48414C12.9976 3.35415 12.9434 3.23071 12.8501 3.14007C12.7569 3.04943 12.6319 2.99874 12.5019 2.99879C9.92534 3.0722 8.18269 4.05937 6.50095 6.40521C6.03165 7.08091 5.61897 7.79421 5.26711 8.53785C5.81233 8.63939 6.31404 8.90363 6.7062 9.29579C7.09837 9.68796 7.36261 10.1897 7.46415 10.7349C8.20779 10.383 8.92109 9.97035 9.59679 9.50105C11.9406 7.81731 12.9278 6.07466 13.0012 3.48414ZM5.07287 10.9276C5.35188 11.2095 5.50838 11.5901 5.50838 11.9867C5.50838 12.3833 5.35188 12.7639 5.07287 13.0458C4.61998 13.4982 3.2643 13.7773 2.70206 13.8767L2 14L2.12333 13.2979C2.2232 12.7357 2.50183 11.38 2.95422 10.9271C3.23971 10.6548 3.61911 10.503 4.01364 10.503C4.40817 10.5031 4.78751 10.6552 5.07287 10.9276ZM4.51262 11.9867C4.5128 11.9211 4.49996 11.8561 4.47485 11.7955C4.44973 11.7349 4.41284 11.6799 4.36632 11.6337C4.27268 11.5401 4.1457 11.4875 4.01329 11.4875C3.88089 11.4875 3.75391 11.5401 3.66027 11.6337C3.46989 11.9773 3.33619 12.3495 3.2643 12.7357C3.65068 12.6635 4.02294 12.5296 4.36682 12.3392C4.41319 12.293 4.44995 12.2381 4.47498 12.1776C4.50001 12.117 4.5128 12.0522 4.51262 11.9867Z" fill="#0168B4"/>
</g>
</svg>
